<svg width="32" height="32" viewBox="0 0 32 32" fill="none" xmlns="http://www.w3.org/2000/svg">
<g clip-path="url(#clip0_959_941)">
<path d="M27.9997 0H3.99995C1.79083 0 0 1.79086 0 4V28C0 30.2091 1.79083 32 3.99995 32H27.9997C30.2086 32 31.9995 30.2091 31.9995 28V4C31.9995 1.79086 30.2086 0 27.9997 0Z" fill="#2B2C30"/>
<path d="M25.2717 14.3579C24.8816 13.9679 24.2477 13.9679 23.8578 14.3579L15.5138 22.7019L14.3818 21.5699L12.1198 23.832L13.2518 24.964L14.8078 26.52C15.1978 26.9099 15.8318 26.9099 16.2218 26.52L24.5656 18.176L25.6976 19.308L27.9597 17.0459L25.2717 14.3579Z" fill="white"/>
<path d="M7.59394 19.3081L9.85594 17.0462L8.72394 15.9141L15.5119 9.12608L16.644 10.2581L18.9059 7.99608L16.22 5.31008C15.8299 4.92008 15.1959 4.92008 14.8059 5.31008L4.90794 15.2061C4.51794 15.5961 4.51794 16.2302 4.90794 16.6201L7.59394 19.306V19.3081Z" fill="white"/>
<path d="M20.7458 9.83205C20.3557 9.44205 19.7218 9.44205 19.3317 9.83205L8.72586 20.4381L10.9878 22.7L20.0397 13.6481L21.1717 14.7801L23.4336 12.5181L20.7458 9.83205Z" fill="white"/>
</g>
<defs>
<clipPath id="clip0_959_941">
<rect width="32" height="32" fill="white"/>
</clipPath>
</defs>
</svg>
