<svg width="26" height="32" viewBox="0 0 26 32" fill="none" xmlns="http://www.w3.org/2000/svg">
<path d="M13.5933 0.00274671C10.8793 3.36371 8.53178 7.00478 6.59067 10.8641C6.3336 10.6397 6.08669 10.4039 5.85067 10.1574C5.33941 9.45343 4.80352 8.76768 4.244 8.10141C3.55776 8.96045 2.99622 9.91206 2.576 10.9281C1.55239 13.4329 0.901904 16.0744 0.645333 18.7681C0.48825 20.324 0.641429 21.8957 1.096 23.3921C2.84533 28.0321 6.15467 30.8494 11.0227 31.8414C15.096 32.4254 18.696 31.3974 21.8187 28.7587C25.388 25.3054 26.2973 21.2467 24.548 16.5827C23.4601 13.9772 22.1261 11.4815 20.564 9.12941C18.4573 6.0072 16.2069 2.98439 13.82 0.0707467C13.7892 0.0440044 13.7531 0.0241131 13.714 0.0123902C13.6749 0.000667244 13.6338 -0.00261982 13.5933 0.00274671ZM13.1453 5.21075C15.5051 7.94802 17.6425 10.8693 19.5373 13.9467C20.1347 14.9694 20.6267 16.0401 21.0147 17.1601C21.8227 20.3414 20.956 22.9654 18.4133 25.0321C15.9533 26.7627 13.2533 27.2761 10.3173 26.5734C7.14933 25.5907 5.31733 23.4601 4.82267 20.1814C4.70128 19.1629 4.81158 18.13 5.14533 17.1601C5.62267 15.9494 6.19867 14.7947 6.87867 13.6921L8.80667 10.8641C10.2655 8.98938 11.7118 7.1049 13.1453 5.21075Z" fill="#E36002"/>
</svg>
