<svg width="32" height="32" viewBox="0 0 32 32" fill="none" xmlns="http://www.w3.org/2000/svg">
<path d="M31.4125 19.6304C31.3942 19.5745 31.369 19.5212 31.3375 19.4716C31.1521 19.1207 30.7017 19.0159 29.9943 19.1621C27.7899 19.6169 26.9363 19.3371 26.6268 19.1367C28.4161 16.4057 29.8868 13.1073 30.6816 10.0304C31.0435 8.62947 31.7459 5.33214 30.8445 3.7216C30.7869 3.61137 30.7196 3.5065 30.6433 3.40827C28.9241 1.21147 26.4009 0.0330685 23.3465 0.000668538C21.3536 -0.0203981 19.6525 0.462135 19.1917 0.639869C18.9635 0.59727 18.7341 0.56099 18.5039 0.531069C17.9267 0.426549 17.3418 0.369557 16.7553 0.360669C15.1791 0.336135 13.8169 0.712935 12.6889 1.48147C11.5459 1.05334 6.30386 -0.711865 3.05972 1.58654C1.24786 2.87014 0.411456 5.1644 0.57359 8.40574C0.628123 9.4964 1.24946 12.8511 2.22999 16.0639C2.84306 18.0725 3.48159 19.6664 4.14119 20.8399C4.87852 22.1655 5.64239 22.9643 6.42692 23.2259C7.02346 23.4247 7.93719 23.418 8.90439 22.2553C9.97266 20.9707 11.0248 19.8209 11.4972 19.3128C12.0773 19.6268 12.7057 19.7961 13.3505 19.8157C13.3506 19.8176 13.3508 19.8194 13.3511 19.8212C13.2388 19.955 13.1289 20.0907 13.0215 20.2284C12.5696 20.802 12.4756 20.9213 11.0212 21.2208C10.6076 21.3061 9.50866 21.5327 9.49266 22.3028C9.48932 22.466 9.53652 22.6107 9.61519 22.7385C9.91772 23.3027 10.844 23.5515 10.9685 23.5827C12.7479 24.0273 14.3077 23.7053 15.4637 22.6777C15.4411 25.6524 15.5671 28.5676 15.9243 29.4609C16.2192 30.1981 16.94 32.0003 19.2165 32C19.5505 32 19.9183 31.9612 20.3227 31.8745C22.6985 31.3651 23.7303 30.3151 24.1293 28C24.3297 26.8391 24.6648 24.1663 24.8477 22.5317C24.8703 22.438 24.8953 22.3708 24.9237 22.3501C24.9247 22.3495 25.0167 22.2873 25.4933 22.3911C25.5128 22.3953 25.5325 22.3983 25.5524 22.4001L25.8909 22.4299L25.9108 22.4312C27.0399 22.4824 28.4593 22.2411 29.2857 21.8568C30.1441 21.4584 31.6933 20.4804 31.4125 19.6304ZM3.16132 15.8353C2.16999 12.5876 1.59079 9.32187 1.54492 8.40614C1.40012 5.51093 2.10106 3.4956 3.62799 2.41587C6.07692 0.684402 10.0811 1.6948 11.772 2.24254C11.7677 2.2468 11.7632 2.25067 11.7589 2.25507C9.06052 4.9804 9.12452 9.6364 9.13119 9.92107C9.13092 10.0308 9.13999 10.1863 9.15279 10.4001C9.19919 11.1832 9.28559 12.6407 9.05479 14.2913C8.84026 15.8252 9.31306 17.3265 10.3519 18.4103C10.4593 18.5224 10.5716 18.6277 10.6876 18.7268C10.2252 19.222 9.22039 20.3169 8.15092 21.6036C7.39399 22.5136 6.87132 22.3392 6.69946 22.2819C6.17692 22.1076 5.61546 21.4991 5.04866 20.5188C4.40919 19.4001 3.76399 17.8099 3.16132 15.8353ZM11.1709 22.6181C10.9428 22.5611 10.7348 22.4672 10.5947 22.3819C10.7132 22.3293 10.9112 22.2616 11.2391 22.194C12.9501 21.8419 13.2144 21.5932 13.7915 20.8604C13.9237 20.6924 14.0736 20.5021 14.2812 20.2703C14.3258 20.2202 14.3593 20.1612 14.3795 20.0972C14.6072 19.8955 14.7427 19.9507 14.962 20.0416C15.17 20.1277 15.3724 20.3883 15.4547 20.6752C15.4935 20.8107 15.5372 21.0679 15.3944 21.2677C14.1887 22.9555 12.4323 22.9336 11.1709 22.6181ZM13.9629 17.3008L13.8929 17.4888C13.7156 17.9643 13.5507 18.4063 13.4484 18.8261C12.5585 18.8233 11.6927 18.4432 11.0344 17.7563C10.1972 16.8828 9.81692 15.6677 9.99106 14.4224C10.2348 12.6785 10.1448 11.16 10.0964 10.3443C10.0897 10.23 10.0837 10.13 10.0801 10.0511C10.4744 9.7016 12.3013 8.7228 13.604 9.0212C14.1985 9.15747 14.5608 9.56214 14.7113 10.2585C15.4908 13.8636 14.8145 15.3661 14.2711 16.5736C14.1591 16.8224 14.0533 17.0575 13.9629 17.3008ZM23.7812 23.3975C23.7587 23.6332 23.7335 23.8988 23.6988 24.192L23.5041 24.7764C23.4887 24.8227 23.4805 24.8712 23.4799 24.92C23.472 25.5529 23.4079 25.7852 23.3265 26.0791C23.242 26.3847 23.1461 26.7312 23.0873 27.4891C22.9407 29.3748 21.9164 30.458 19.8644 30.8977C17.8437 31.3312 17.4853 30.2353 17.1695 29.2688C17.1371 29.1675 17.1029 29.0668 17.0669 28.9667C16.7797 28.1856 16.8121 27.0841 16.8571 25.5599C16.8791 24.8116 16.8239 23.0248 16.4168 22.0316C16.4227 21.6407 16.4309 21.2437 16.4421 20.8425C16.4435 20.7917 16.4366 20.741 16.4217 20.6924C16.4088 20.5987 16.3893 20.506 16.3632 20.4151C16.1997 19.844 15.8015 19.3663 15.3236 19.1683C15.1337 19.0896 14.7852 18.9453 14.3665 19.0524C14.4559 18.6844 14.6107 18.2691 14.7785 17.8192L14.8491 17.6299C14.9284 17.4165 15.0277 17.1956 15.1331 16.9616C15.7017 15.6981 16.4805 13.9679 15.6352 10.0587C15.3187 8.59454 14.2613 7.8796 12.6587 8.0456C11.6977 8.14507 10.8188 8.5328 10.3803 8.75507C10.2923 8.79963 10.2053 8.84591 10.1192 8.89387C10.2416 7.41867 10.704 4.66174 12.4335 2.91747C12.5619 2.78802 12.6969 2.66519 12.8379 2.54947C12.9078 2.53582 12.9738 2.50646 13.0308 2.4636C14.034 1.7028 15.2901 1.32947 16.7668 1.3536C17.3123 1.36254 17.8357 1.3988 18.3324 1.4616C20.9177 1.93414 22.6576 3.39067 23.7136 4.63854C24.7993 5.9216 25.3872 7.21387 25.6219 7.91094C23.8576 7.73147 22.6573 8.08 22.0489 8.9496C20.7255 10.8415 22.7729 14.5135 23.7571 16.2781C23.9375 16.6016 24.0933 16.8811 24.1423 16.9999C24.4627 17.7765 24.8776 18.2949 25.1805 18.6735C25.2733 18.7895 25.3635 18.902 25.4319 19.0001C24.8975 19.1541 23.9375 19.5101 24.0249 21.2895C24.0085 21.4979 23.9685 21.8853 23.9137 22.3759C23.8523 22.6528 23.8201 22.9896 23.7812 23.3975ZM24.9685 21.236C24.9145 20.1272 25.3273 20.0113 25.7641 19.8887C25.8246 19.8721 25.8846 19.8541 25.9441 19.8345C26.0005 19.8845 26.0603 19.9303 26.1231 19.9719C26.8835 20.4739 28.2328 20.5336 30.1321 20.1511C29.8633 20.3869 29.4403 20.6836 28.8611 20.9525C28.3147 21.2063 27.4001 21.3965 26.5313 21.4373C25.5717 21.4821 25.0835 21.3297 24.9685 21.236ZM25.7279 8.8744C25.72 9.34214 25.6556 9.76667 25.5873 10.21C25.514 10.6868 25.438 11.1799 25.4188 11.7783C25.3999 12.3607 25.4727 12.9661 25.5431 13.5517C25.6852 14.7344 25.8311 15.9521 25.2664 17.1536C25.1727 16.9875 25.0891 16.8158 25.0163 16.6395C24.946 16.4693 24.7937 16.196 24.5828 15.8179C23.762 14.3457 21.8396 10.8984 22.8237 9.49174C23.3297 8.76814 24.6115 8.73694 25.7279 8.8744ZM26.0324 18.226C25.9947 18.1781 25.9568 18.1303 25.9187 18.0828L25.8713 18.0236C26.8396 16.4243 26.6503 14.842 26.4817 13.4389C26.4125 12.8632 26.3472 12.3195 26.3637 11.8088C26.3809 11.2673 26.4525 10.8031 26.5217 10.354C26.6069 9.80067 26.6935 9.22827 26.6696 8.55334C26.6875 8.48254 26.6947 8.39894 26.6853 8.29974C26.6244 7.6524 25.8855 5.71574 24.3795 3.9624C23.5693 3.01934 22.3933 1.96614 20.7943 1.24307C21.4944 1.10094 22.438 0.971735 23.4935 0.995202C26.2288 1.056 28.3929 2.07987 29.9257 4.0384C29.9583 4.08092 29.988 4.12555 30.0147 4.172C30.9788 5.97947 29.6464 12.5388 26.0324 18.226ZM14.2769 10.0711C14.2436 10.3103 13.8651 10.6344 13.4488 10.6344C13.4127 10.6344 13.3767 10.6319 13.3409 10.6269C13.0912 10.5923 12.8389 10.4349 12.6664 10.2061C12.6053 10.1255 12.506 9.9688 12.5257 9.82694C12.5331 9.77347 12.5605 9.6956 12.6491 9.62854C12.8067 9.50934 13.1181 9.46507 13.4619 9.51294C13.8836 9.57174 14.3187 9.77134 14.2769 10.0711ZM24.8509 9.52254C24.8657 9.62814 24.7856 9.79053 24.6468 9.93614C24.5557 10.0317 24.3641 10.1976 24.1029 10.2337C24.0698 10.2383 24.0364 10.2407 24.0029 10.2407C23.6116 10.2407 23.2811 9.92814 23.2553 9.74507C23.2233 9.50974 23.6075 9.33094 24.0035 9.27574C24.3995 9.22054 24.8183 9.28747 24.8509 9.52254Z" fill="#4169E1"/>
</svg>
