<svg width="32" height="30" viewBox="0 0 32 30" fill="none" xmlns="http://www.w3.org/2000/svg">
<path d="M18.9733 15.0053C18.9733 15.7958 18.6594 16.5539 18.1006 17.1129C17.5418 17.672 16.7838 17.9863 15.9933 17.9866C15.2026 17.9866 14.4443 17.6725 13.8852 17.1134C13.3261 16.5543 13.012 15.796 13.012 15.0053C13.012 14.2148 13.3259 13.4567 13.8847 12.8976C14.4436 12.3386 15.2015 12.0243 15.992 12.024C16.7827 12.024 17.541 12.3381 18.1001 12.8972C18.6592 13.4563 18.9733 14.2146 18.9733 15.0053ZM22.504 0.751953C20.7093 0.751953 18.3613 2.03195 15.9867 4.24795C13.6133 2.04395 11.264 0.77862 9.47067 0.77862C8.924 0.77862 8.42667 0.90262 7.996 1.14929C6.16267 2.20662 5.752 5.50129 6.69867 9.63595C2.64 10.8893 0 12.8933 0 15.0053C0 17.1253 2.65333 19.1346 6.724 20.3786C5.78533 24.5293 6.204 27.8293 8.04133 28.8853C8.468 29.1346 8.96133 29.252 9.51067 29.252C11.304 29.252 13.6533 27.972 16.028 25.7533C18.4013 27.9586 20.7507 29.224 22.544 29.224C23.0907 29.224 23.588 29.104 24.0187 28.8573C25.8507 27.8013 26.2627 24.5066 25.316 20.3706C29.36 19.128 32 17.12 32 15.0053C32 12.8853 29.3467 10.876 25.276 9.62929C26.2147 5.48262 25.796 2.17995 23.9587 1.12262C23.5347 0.877286 23.0427 0.753286 22.504 0.751953ZM22.4973 2.20529V2.21329C22.7973 2.21329 23.0387 2.27195 23.2413 2.38262C24.1293 2.89195 24.5147 4.82929 24.2147 7.32129C24.1427 7.93462 24.0253 8.58129 23.8813 9.24129C22.6013 8.92662 21.2067 8.68529 19.7387 8.52929C18.8587 7.32262 17.9453 6.22662 17.0253 5.26662C19.148 3.29329 21.1413 2.21062 22.4987 2.20662L22.4973 2.20529ZM9.47067 2.23195C10.82 2.23195 12.8227 3.30929 14.9507 5.27195C14.036 6.23195 13.124 7.32129 12.2573 8.52795C10.7813 8.68395 9.38533 8.92529 8.10667 9.24529C7.95733 8.59195 7.84667 7.95995 7.768 7.35195C7.46133 4.86129 7.84 2.92529 8.72 2.40929C8.97333 2.28929 9.25333 2.23862 9.47067 2.23195ZM15.98 6.29862C16.5867 6.92262 17.1933 7.62129 17.7933 8.38395C17.2067 8.35729 16.6067 8.33862 16 8.33862C15.3867 8.33862 14.78 8.35195 14.1867 8.38395C14.7733 7.62129 15.38 6.92395 15.98 6.29862ZM16 9.79995C16.9867 9.79995 17.9693 9.84529 18.936 9.92395C19.4773 10.7 20.0053 11.528 20.5133 12.404C21.0093 13.2573 21.46 14.124 21.8707 14.9986C21.46 15.872 21.0093 16.7453 20.52 17.5986C20.0133 18.4786 19.4893 19.316 18.9467 20.092C17.976 20.176 16.992 20.2226 16 20.2226C15.0133 20.2226 14.0307 20.176 13.064 20.0986C12.5227 19.3226 11.9947 18.4933 11.4867 17.6186C10.9907 16.7653 10.54 15.8986 10.1293 15.024C10.5333 14.148 10.9907 13.2733 11.48 12.4186C11.9867 11.5386 12.5107 10.704 13.0533 9.92795C14.024 9.84262 15.008 9.79729 16 9.79729V9.79995ZM11.1533 10.1386C10.8333 10.6413 10.5133 11.156 10.2147 11.6853C9.91467 12.2053 9.63467 12.728 9.368 13.2506C9.01467 12.376 8.71467 11.504 8.46667 10.6546C9.32 10.4546 10.22 10.276 11.1533 10.1386ZM20.8333 10.1386C21.76 10.276 22.6533 10.4453 23.508 10.6546C23.268 11.4973 22.968 12.364 22.628 13.232C22.3613 12.712 22.0813 12.188 21.7747 11.6666C21.4747 11.144 21.1547 10.6346 20.8347 10.1386H20.8333ZM24.9173 11.0386C25.5627 11.2386 26.176 11.4613 26.7507 11.7026C29.06 12.6893 30.5533 13.98 30.5533 15.004C30.5467 16.028 29.0533 17.324 26.744 18.304C26.184 18.544 25.5707 18.76 24.9373 18.9613C24.564 17.684 24.076 16.3533 23.4707 14.988C24.0707 13.632 24.5507 12.308 24.9173 11.036V11.0386ZM7.05733 11.044C7.428 12.324 7.91733 13.6533 8.524 15.0173C7.924 16.3733 7.44133 17.6973 7.076 18.9693C6.43067 18.7693 5.81733 18.5453 5.24933 18.3026C2.94 17.32 1.44667 16.028 1.44667 15.004C1.44667 13.98 2.94 12.6813 5.24933 11.7026C5.80933 11.4626 6.42267 11.2466 7.05733 11.044ZM22.628 16.7506C22.9813 17.6266 23.2813 18.5 23.5293 19.348C22.676 19.5573 21.7747 19.7346 20.8413 19.868C21.1613 19.368 21.4813 18.852 21.7813 18.324C22.0813 17.804 22.36 17.2733 22.628 16.7506ZM9.368 16.7773C9.63467 17.3 9.91467 17.8213 10.2213 18.344C10.528 18.864 10.8413 19.3733 11.1613 19.868C10.2347 19.732 9.34133 19.5613 8.48667 19.3533C8.72667 18.5133 9.028 17.644 9.36667 16.776L9.368 16.7773ZM23.8933 20.76C24.0427 21.4173 24.16 22.0506 24.232 22.6573C24.5387 25.148 24.16 27.084 23.28 27.6013C23.084 27.7213 22.8293 27.772 22.5293 27.772C21.18 27.772 19.1773 26.696 17.0493 24.732C17.964 23.772 18.876 22.684 19.7427 21.4786C21.2187 21.3213 22.6147 21.08 23.8933 20.76ZM8.12 20.7733C9.4 21.0853 10.7947 21.3266 12.2627 21.4826C13.1427 22.6893 14.056 23.7853 14.976 24.744C12.8493 26.7213 10.8533 27.804 9.496 27.804C9.20267 27.7973 8.95467 27.7373 8.75867 27.628C7.87067 27.1213 7.48533 25.1826 7.78533 22.6906C7.85733 22.0773 7.976 21.432 8.12 20.7733ZM14.2 21.6266C14.7867 21.6533 15.3867 21.672 15.9933 21.672C16.6067 21.672 17.2133 21.6586 17.8067 21.6266C17.22 22.3893 16.6133 23.0866 16.0133 23.7133C15.4067 23.0866 14.8 22.3893 14.2 21.6266Z" fill="#61DAFB"/>
</svg>
