<svg width="32" height="20" viewBox="0 0 32 20" fill="none" xmlns="http://www.w3.org/2000/svg">
<path d="M16.0013 0.399902C11.7347 0.399902 9.06801 2.53324 8.00134 6.7999C9.60134 4.66657 11.468 3.86657 13.6013 4.3999C14.8187 4.7039 15.688 5.58657 16.652 6.56524C18.2213 8.15724 20.036 9.9999 24.0013 9.9999C28.268 9.9999 30.9347 7.86657 32.0013 3.5999C30.4013 5.73324 28.5347 6.53324 26.4013 5.9999C25.184 5.6959 24.3147 4.81324 23.3507 3.83457C21.7827 2.24257 19.968 0.399902 16.0013 0.399902ZM8.00134 9.9999C3.73468 9.9999 1.06801 12.1332 0.00134277 16.3999C1.60134 14.2666 3.46801 13.4666 5.60134 13.9999C6.81868 14.3039 7.68801 15.1866 8.65201 16.1652C10.2213 17.7572 12.036 19.5999 16.0013 19.5999C20.268 19.5999 22.9347 17.4666 24.0013 13.1999C22.4013 15.3332 20.5347 16.1332 18.4013 15.5999C17.184 15.2959 16.3147 14.4132 15.3507 13.4346C13.7827 11.8426 11.968 9.9999 8.00134 9.9999Z" fill="#06B6D4"/>
</svg>
