<svg width="36" height="36" viewBox="0 0 36 36" fill="none" xmlns="http://www.w3.org/2000/svg">
<path d="M18 0C8.055 0 0 8.0595 0 18C0 25.9545 5.157 32.7 12.3075 35.0775C13.2075 35.247 13.5375 34.6905 13.5375 34.212C13.5375 33.7845 13.5225 32.652 13.515 31.152C8.508 32.238 7.452 28.737 7.452 28.737C6.633 26.6595 5.4495 26.1045 5.4495 26.1045C3.819 24.9885 5.5755 25.011 5.5755 25.011C7.383 25.137 8.3325 26.865 8.3325 26.865C9.9375 29.6175 12.546 28.8225 13.575 28.362C13.737 27.198 14.2005 26.4045 14.715 25.9545C10.7175 25.5045 6.516 23.9565 6.516 17.0595C6.516 15.0945 7.2135 13.4895 8.3685 12.2295C8.166 11.775 7.5585 9.945 8.526 7.4655C8.526 7.4655 10.0335 6.9825 13.476 9.3105C14.916 8.91 16.446 8.712 17.976 8.703C19.506 8.712 21.036 8.91 22.476 9.3105C25.896 6.9825 27.4035 7.4655 27.4035 7.4655C28.371 9.945 27.7635 11.775 27.5835 12.2295C28.731 13.4895 29.4285 15.0945 29.4285 17.0595C29.4285 23.9745 25.221 25.497 21.216 25.9395C21.846 26.4795 22.431 27.5835 22.431 29.2695C22.431 31.6785 22.4085 33.6135 22.4085 34.1985C22.4085 34.671 22.7235 35.2335 23.646 35.0535C30.8475 32.6925 36 25.9425 36 18C36 8.0595 27.9405 0 18 0Z" fill="#181717"/>
</svg>
