<svg width="40" height="30" viewBox="0 0 40 30" fill="none" xmlns="http://www.w3.org/2000/svg">
<path d="M39.1633 5.31011C38.9374 4.4589 38.4917 3.68201 37.871 3.05722C37.2503 2.43243 36.4764 1.98168 35.6267 1.75011C32.5083 0.908447 20 0.908447 20 0.908447C20 0.908447 7.49167 0.908447 4.37167 1.75011C3.52235 1.98209 2.74882 2.433 2.12846 3.05775C1.5081 3.6825 1.06265 4.45918 0.836667 5.31011C0 8.45011 0 15.0001 0 15.0001C0 15.0001 0 21.5501 0.836667 24.6901C1.06264 25.5413 1.50829 26.3182 2.12899 26.943C2.74968 27.5678 3.52363 28.0185 4.37333 28.2501C7.49167 29.0918 20 29.0918 20 29.0918C20 29.0918 32.5083 29.0918 35.6283 28.2501C36.4781 28.0187 37.2521 27.568 37.8729 26.9432C38.4936 26.3184 38.9392 25.5414 39.165 24.6901C40 21.5501 40 15.0001 40 15.0001C40 15.0001 40 8.45011 39.1633 5.31011ZM15.9083 20.9468V9.05345L26.3633 15.0001L15.9083 20.9468Z" fill="#FF0000"/>
</svg>
